<?xml version="1.0" encoding="UTF-8"?>
<svg width="16px" height="16px" viewBox="0 0 16 16" version="1.1" xmlns="http://www.w3.org/2000/svg" xmlns:xlink="http://www.w3.org/1999/xlink">
    <title>Icon/操作/画板备份</title>
    <defs>
        <rect id="path-1" x="0" y="0" width="16" height="16"></rect>
    </defs>
    <g id="----画板" stroke="none" stroke-width="1" fill="none" fill-rule="evenodd">
        <g id="编辑-调色盘" transform="translate(-920.000000, -594.000000)">
            <g id="调色盘备份-2" transform="translate(720.000000, 418.000000)">
                <g id="编组-26" transform="translate(200.000000, 176.000000)">
                    <mask id="mask-2" fill="white">
                        <use xlink:href="#path-1"></use>
                    </mask>
                    <g id="蒙版"></g>
                    <g mask="url(#mask-2)" fill="#000000" fill-opacity="0.85" fill-rule="nonzero" id="形状结合">
                        <g transform="translate(8.106532, 8.106532) rotate(-315.000000) translate(-8.106532, -8.106532) translate(-0.266667, -0.266667)">
                            <path d="M5.67238576,2.96585378 L6.99478644,4.28811977 L7.03978941,4.24867364 C7.66833128,3.72977631 8.60030981,3.76436946 9.18839345,4.3524531 L9.94264069,5.10670034 C10.1509203,5.31497996 10.1509203,5.65266795 9.94264069,5.86094757 L9.18778644,6.61411977 L13.7138769,11.1406782 C14.4428555,11.8696569 14.4428555,13.0515648 13.7138769,13.7805435 C12.9848982,14.5095222 11.8029902,14.5095222 11.0740115,13.7805435 L6.54778644,9.25411977 L5.7942809,10.0093074 C5.58600128,10.217587 5.24831329,10.217587 5.04003367,10.0093074 L4.28578644,9.25506012 C3.66094757,8.63022125 3.66094757,7.61715729 4.28578644,6.99231842 L4.35178644,6.92511977 L3.03252045,5.6057191 C2.30354177,4.87674042 2.30354177,3.69483246 3.03252045,2.96585378 C3.76149912,2.2368751 4.94340708,2.2368751 5.67238576,2.96585378 Z M8.43414622,7.36944204 L7.86778644,7.93411977 L7.30277537,8.50081289 L11.8282588,13.0262963 C12.1295204,13.3275579 12.6112769,13.3383172 12.925431,13.0585743 L12.9596296,13.0262963 C13.2720491,12.7138769 13.2720491,12.2073449 12.9596296,11.8949254 L8.43414622,7.36944204 Z M7.70907857,5.07958956 L7.67989899,5.10670034 L5.04003367,7.74656565 C4.83175405,7.95484528 4.83175405,8.29253326 5.04003367,8.50081289 L5.41715729,8.8779365 L8.81126984,5.48382395 L8.43414622,5.10670034 C8.23533385,4.90788797 7.91861014,4.89885105 7.70907857,5.07958956 Z M3.82096628,3.68782298 L3.78676768,3.72010101 C3.47434825,4.03252045 3.47434825,4.53905243 3.78676768,4.85147186 L5.10670034,6.17140452 L6.23807119,5.04003367 L4.91813853,3.72010101 C4.61687693,3.41883942 4.13512038,3.40808007 3.82096628,3.68782298 Z" transform="translate(8.373199, 8.373199) rotate(-315.000000) translate(-8.373199, -8.373199) "></path>
                        </g>
                    </g>
                </g>
            </g>
        </g>
    </g>
</svg>